<svg xmlns="http://www.w3.org/2000/svg" xmlns:xlink="http://www.w3.org/1999/xlink" width="500" zoomAndPan="magnify" viewBox="0 0 375 374.999991" height="500" preserveAspectRatio="xMidYMid meet" version="1.0"><defs><g/></defs><g fill="#ffffff" fill-opacity="1"><g transform="translate(133.112252, 179.899954)"><g><path d="M 2.140625 0 L 2.140625 -20.296875 L 8.8125 -20.296875 C 10.394531 -20.296875 11.695312 -20.035156 12.71875 -19.515625 C 13.75 -18.992188 14.507812 -18.285156 15 -17.390625 C 15.5 -16.503906 15.75 -15.503906 15.75 -14.390625 C 15.75 -13.285156 15.503906 -12.285156 15.015625 -11.390625 C 14.535156 -10.503906 13.78125 -9.796875 12.75 -9.265625 C 11.726562 -8.734375 10.414062 -8.46875 8.8125 -8.46875 L 4.578125 -8.46875 L 4.578125 0 Z M 4.578125 -10.53125 L 8.765625 -10.53125 C 10.378906 -10.53125 11.53125 -10.875 12.21875 -11.5625 C 12.90625 -12.25 13.25 -13.191406 13.25 -14.390625 C 13.25 -15.609375 12.90625 -16.554688 12.21875 -17.234375 C 11.53125 -17.921875 10.378906 -18.265625 8.765625 -18.265625 L 4.578125 -18.265625 Z M 4.578125 -10.53125 "/></g></g></g><g fill="#ffffff" fill-opacity="1"><g transform="translate(151.812697, 179.899954)"><g><path d="M 11.375 0.34375 C 9.375 0.34375 7.625 -0.09375 6.125 -0.96875 C 4.632812 -1.851562 3.46875 -3.085938 2.625 -4.671875 C 1.78125 -6.253906 1.359375 -8.082031 1.359375 -10.15625 C 1.359375 -12.21875 1.78125 -14.035156 2.625 -15.609375 C 3.46875 -17.191406 4.632812 -18.425781 6.125 -19.3125 C 7.625 -20.195312 9.375 -20.640625 11.375 -20.640625 C 13.382812 -20.640625 15.132812 -20.195312 16.625 -19.3125 C 18.125 -18.425781 19.289062 -17.191406 20.125 -15.609375 C 20.957031 -14.035156 21.375 -12.21875 21.375 -10.15625 C 21.375 -8.082031 20.957031 -6.253906 20.125 -4.671875 C 19.289062 -3.085938 18.125 -1.851562 16.625 -0.96875 C 15.132812 -0.09375 13.382812 0.34375 11.375 0.34375 Z M 11.375 -1.796875 C 12.851562 -1.796875 14.160156 -2.128906 15.296875 -2.796875 C 16.429688 -3.460938 17.3125 -4.421875 17.9375 -5.671875 C 18.5625 -6.921875 18.875 -8.414062 18.875 -10.15625 C 18.875 -11.894531 18.5625 -13.378906 17.9375 -14.609375 C 17.3125 -15.847656 16.429688 -16.800781 15.296875 -17.46875 C 14.160156 -18.132812 12.851562 -18.46875 11.375 -18.46875 C 9.882812 -18.46875 8.570312 -18.132812 7.4375 -17.46875 C 6.300781 -16.800781 5.421875 -15.847656 4.796875 -14.609375 C 4.171875 -13.378906 3.859375 -11.894531 3.859375 -10.15625 C 3.859375 -8.414062 4.171875 -6.921875 4.796875 -5.671875 C 5.421875 -4.421875 6.300781 -3.460938 7.4375 -2.796875 C 8.570312 -2.128906 9.882812 -1.796875 11.375 -1.796875 Z M 11.375 -1.796875 "/></g></g></g><g fill="#ffffff" fill-opacity="1"><g transform="translate(176.456534, 179.899954)"><g><path d="M 6.328125 0.03125 L 0.75 -20.296875 L 3.359375 -20.296875 L 7.75 -2.875 L 12.734375 -20.296875 L 15.421875 -20.296875 L 20.265625 -2.875 L 24.703125 -20.296875 L 27.3125 -20.296875 L 21.640625 0 L 18.84375 0 L 14 -16.765625 L 9.046875 0 Z M 6.328125 0.03125 "/></g></g></g><g fill="#ffffff" fill-opacity="1"><g transform="translate(206.405944, 179.899954)"><g><path d="M 2.140625 0 L 2.140625 -20.296875 L 14.703125 -20.296875 L 14.703125 -18.296875 L 4.578125 -18.296875 L 4.578125 -11.21875 L 13.828125 -11.21875 L 13.828125 -9.25 L 4.578125 -9.25 L 4.578125 -2 L 14.703125 -2 L 14.703125 0 Z M 2.140625 0 "/></g></g></g><g fill="#ffffff" fill-opacity="1"><g transform="translate(224.671514, 179.899954)"><g><path d="M 2.140625 0 L 2.140625 -20.296875 L 8.703125 -20.296875 C 10.285156 -20.296875 11.578125 -20.035156 12.578125 -19.515625 C 13.585938 -18.992188 14.332031 -18.28125 14.8125 -17.375 C 15.300781 -16.46875 15.546875 -15.460938 15.546875 -14.359375 C 15.546875 -13.078125 15.203125 -11.921875 14.515625 -10.890625 C 13.828125 -9.867188 12.757812 -9.148438 11.3125 -8.734375 L 15.75 0 L 12.875 0 L 8.765625 -8.375 L 4.578125 -8.375 L 4.578125 0 Z M 4.578125 -10.296875 L 8.53125 -10.296875 C 10.09375 -10.296875 11.226562 -10.671875 11.9375 -11.421875 C 12.65625 -12.179688 13.015625 -13.148438 13.015625 -14.328125 C 13.015625 -15.523438 12.660156 -16.472656 11.953125 -17.171875 C 11.253906 -17.878906 10.101562 -18.234375 8.5 -18.234375 L 4.578125 -18.234375 Z M 4.578125 -10.296875 "/></g></g></g></svg>